<svg id="Layer_2" xmlns="http://www.w3.org/2000/svg" viewBox="0 0 144.48 166.51" width="144.48px" height="166.51px"><defs><style>.cls-1 { fill: rgb(231, 146, 255); }
.cls-2 { fill: rgb(183, 192, 0); }
.cls-3 { fill: rgb(75, 39, 157); }
.cls-4 { fill: rgb(177, 86, 255); }
.cls-5 { fill: rgb(220, 141, 255); }
.cls-6 { fill: rgb(236, 247, 117); }
.cls-7 { fill: rgb(187, 149, 228); }
.cls-8 { fill: rgb(255, 247, 118); }
.cls-9 { fill: rgb(229, 255, 91); }
.cls-10 { fill: rgb(180, 121, 252); }
.cls-11 { fill: rgb(188, 136, 249); }
.cls-12 { fill: rgb(124, 148, 44); }
.cls-13 { fill: rgb(82, 91, 32); }
.cls-14 { fill: rgb(72, 126, 0); }
.cls-15 { fill: rgb(105, 122, 0); }
.cls-16 { fill: rgb(28, 0, 175); }
.cls-17 { fill: rgb(72, 65, 87); }
.cls-18 { fill: rgb(90, 0, 16); }
</style></defs><g id="Layer_1-2"><rect class="cls-8" width="144.48" height="166.51"/><path class="cls-13" d="m11.81,61.15s4.44,1.33,6.44,4.77c2,3.44,2.55,10.21,2.55,10.21v3.44l2.55-.33s-.89-5.44-1.11-10.1c-.22-4.66-4.55-7.44-6.44-8.55s-3.89-1.55-3.89-1.55l-.11,2.11Z"/><path class="cls-7" d="m11.7,63.03s3.77.67,5.55,5.66c1.78,5,1.89,10.66,1.89,10.66h-7.44v-16.32Z"/><path class="cls-17" d="m125.92,81.95s.61-4.91-1.99-6.29c-2.61-1.38-5.67.61-5.67.61,0,0,1.38-3.22,4.29-3.07,2.91.15,3.83,1.69,3.83,1.69,0,0-1.23-3.07-3.83-3.53-2.61-.46-3.83.61-3.83.61,0,0,.31-2.61,3.68-2.45s4.45,2.3,4.45,2.3c0,0-.15-3.07-2.45-3.99-2.3-.92-2.91-.77-2.91-.77,0,0,2.91-1.84,5.21-.77,2.3,1.07,2.45,3.37,2.45,3.37,0,0,.61-2.76,2.76-3.53,2.15-.77,3.83.61,3.83.61,0,0-1.99-.46-3.07,1.53-1.07,1.99-1.23,4.45-1.23,4.45,0,0,.92-2.61,3.22-3.07,2.3-.46,4.6,2.3,4.6,2.3,0,0-1.23-.61-3.37.46-2.15,1.07-2.76,3.83-2.76,3.83,0,0,1.69-1.69,3.37-1.69s2.91,1.23,2.91,1.23c0,0-3.07,0-4.29,1.84s-.92,4.45-.92,4.45l-8.28-.15Z"/><path class="cls-14" d="m12.05,159.13s-.81-15.4,3.32-15.7c4.13-.3,3.62,15.3,3.62,15.3l-6.94.4Z"/><path class="cls-4" d="m22.24,149.37c-.21-1.6-.49-3.19-.88-4.76-.3-1.22-.73-2.46-1.59-3.42-1.69-1.89-4.56-1.76-6.55-.44-2.29,1.52-3.26,4.31-3.79,6.88-.77,3.76-.88,7.76-.17,11.54.1.54.95.49.86-.06-.53-3.27-.6-6.56-.11-9.84.38-2.51,1-5.29,2.87-7.14,1.55-1.53,4.32-2.2,6.04-.57.87.82,1.28,2.03,1.57,3.16.36,1.4.61,2.84.81,4.27.49,3.49.64,7.03.38,10.54-.04.56.83.59.87.03.21-3.41.14-6.81-.32-10.2Z"/><path class="cls-10" d="m74.19,152.26s.03-8.3,5.44-8.84c5.41-.54,7.94,4.33,10.82-1.44,2.89-5.77,6.67-6.49,9.56-5.95,2.89.54,4.33,2.71,4.33,2.71l-.54,2.16s-2.53-2.89-6.31-1.44c-3.79,1.44-2.71,5.77-7.03,7.4s-8.84-1.08-11.36.18-1.87,5.26-1.87,5.26l-3.03-.02Z"/><path class="cls-18" d="m102.58,141.86c-.81-1.72-3.03-1.94-4.55-1.1-1.98,1.09-2.79,3.32-3.94,5.13-1.11,1.76-2.78,3.02-4.8,3.55-.98.26-2.01.33-3.02.2-1.21-.16-2.33-.68-3.51-.94-1.16-.25-2.53-.26-3.5.52-.78.64-1.23,1.8-.77,2.75.15.3.64.12.5-.19-.42-.89.11-1.94.95-2.37.93-.49,2.04-.38,3.02-.12,1.07.27,2.09.7,3.18.86.91.13,1.84.1,2.75-.07,1.81-.35,3.51-1.28,4.74-2.66,1.4-1.58,2.02-3.69,3.47-5.24.7-.75,1.62-1.35,2.66-1.38.91-.03,1.92.37,2.33,1.23.15.31.65.14.5-.17Z"/><path class="cls-2" d="m98.94,143.88c-.23.11-.38.33-.5.56-.29.41-.55.98-.06,1.13.32.1.55-.24.72-.46.19-.23.41-.55.42-.87,0-.32-.3-.5-.59-.36Z"/><path class="cls-2" d="m99.34,146.96c-.07,0-.14.03-.21.07-.07.03-.14.07-.19.13-.25.24-.44.55-.55.88-.06.17-.07.3.04.45.09.12.22.15.36.12.47-.1.89-.71.96-1.16.04-.25-.13-.51-.41-.48Z"/><path class="cls-2" d="m96.45,146.95c-.42-.1-.78.62-.91.92-.08.19-.14.41,0,.59.14.18.37.18.56.06.29-.18.49-.5.56-.83.14-.31.17-.66-.21-.74Z"/><path class="cls-2" d="m96.21,150.38c0-.09-.05-.17-.11-.22-.04-.06-.11-.11-.18-.11-.39-.04-.69.36-.85.67-.09.18-.1.42.11.52.17.08.35,0,.5-.09.24-.14.56-.46.54-.76Z"/><path class="cls-2" d="m93.32,149.83c-.28-.42-.9.14-1.12.36-.14.14-.33.31-.29.53.03.22.26.29.45.25.31-.07.58-.28.78-.53.02-.02.04-.04.05-.06.14-.15.27-.35.14-.55Z"/><path class="cls-2" d="m98.25,150.96s-.06-.04-.09-.05c-.2-.07-.38.08-.51.21-.14.12-.26.27-.35.43-.09.15-.11.33,0,.48.13.17.35.15.51.04.27-.18.47-.46.57-.76.04-.12-.01-.27-.12-.34Z"/><path class="cls-2" d="m94.33,152.09c-.02-.19-.23-.34-.43-.29-.16.04-.31.17-.43.28-.14.12-.33.26-.41.43-.08.18,0,.39.2.45.18.05.35-.05.5-.14.26-.15.68-.38.57-.73Z"/><path class="cls-2" d="m91.36,152.08c-.27,0-.53.07-.76.22-.19.13-.44.36-.32.62.13.28.49.21.71.11.22-.1.4-.26.54-.46.02-.03.04-.07.04-.11.09-.15-.04-.38-.22-.38Z"/><path class="cls-2" d="m89.54,150.91c-.17-.13-.39-.04-.56.03-.17.07-.34.15-.51.23-.15.08-.3.18-.31.37,0,.18.13.32.31.33.13.01.27-.04.4-.08.04,0,.08-.01.13-.04.02-.01.05-.03.07-.04.14-.06.28-.12.42-.2.08-.04.12-.1.14-.17.09-.14.07-.33-.07-.44Z"/><path class="cls-2" d="m88.76,153.11c-.18-.14-.42-.09-.63-.03-.23.06-.45.17-.65.31-.18.13-.12.44.11.48.39.07.79-.01,1.12-.25.07-.05.1-.12.11-.19.01-.03.02-.05.03-.08.02-.09-.02-.19-.09-.25Z"/><path class="cls-2" d="m86.39,151.68c-.15-.32-.6-.22-.87-.13-.15.05-.35.11-.42.27-.07.15-.02.32.12.41.21.13.55.06.81-.02.04-.01.09-.02.13-.04.18-.07.32-.29.23-.49Z"/><path class="cls-2" d="m85.18,153.42c-.16-.51-1.01-.28-1.32-.09-.19.12-.18.38.01.48.03.06.09.1.17.11.32.02,1.31.08,1.13-.5Z"/><path class="cls-2" d="m96.89,144.79c0-.19-.19-.36-.38-.26-.2.1-.38.25-.5.45-.11.18-.24.47-.12.68.15.25.42.15.59-.01.17-.16.29-.35.39-.56.02-.05.02-.12,0-.17,0-.04.01-.08.01-.12Z"/><path class="cls-2" d="m101.82,143.74s-.1-.04-.14-.04c-.02,0-.04-.01-.06-.02-.21-.07-.37.07-.48.24-.13.2-.28.4-.4.61-.1.18-.09.41.1.53.18.1.36.03.51-.08.31-.25.51-.57.62-.95.03-.12-.06-.23-.15-.29Z"/><path class="cls-2" d="m99.48,141.62c-.28-.23-.69.05-.89.26-.19.21-.38.67,0,.81.19.07.36-.05.48-.19,0,0,0,0,0,0,.29-.19.76-.58.4-.88Z"/><path class="cls-2" d="m83.3,151.64c-.03-.06-.08-.1-.13-.11-.02-.03-.04-.05-.07-.07-.19-.14-.52-.11-.74-.11-.23,0-.59-.01-.76.18-.16.18-.1.45.1.57.21.13.54.14.78.16.22.02.53.06.72-.08.17-.13.2-.35.1-.53Z"/><path class="cls-2" d="m81.56,150.13c-.14-.13-.31-.22-.5-.25-.18-.03-.41,0-.54.14-.06.08-.08.19-.05.29.05.13.17.19.29.24.17.06.35.1.53.1.07,0,.12-.01.16-.05.08-.03.13-.09.16-.19,0-.01,0-.02.01-.03.03-.09-.01-.2-.07-.26Z"/><path class="cls-2" d="m81.5,153.13c-.12-.28-.38-.5-.68-.56-.11-.02-.22,0-.29.09-.15.05-.26.17-.25.35.03.42.67.51.98.52.21,0,.32-.22.24-.39Z"/><path class="cls-17" d="m65.85,150.09s-5.1-1.17-11.47-7.75c-6.38-6.58-9.26-10.33-9.26-10.33,0,0,3.49,5.59,9.32,11.13,5.83,5.53,11.26,7.72,11.26,7.72l.15-.77Z"/><path class="cls-17" d="m46.65,134.16s-.98-.19-1.93-1.51c-.95-1.32-1.13-2.49-1.13-2.49,0,0,1.63.28,2.39,1.66.77,1.38.67,2.33.67,2.33Z"/><path class="cls-17" d="m49.65,137.36s-.61-.61-.52-2.49c.09-1.87.9-3.78.9-3.78,0,0,.67,1.41.67,3.56,0,2.15-1.05,2.7-1.05,2.7Z"/><path class="cls-17" d="m50.3,138.68s-2.06-.34-3.41.21c-1.35.55-2.52,1.65-2.52,1.65,0,0,1.66.98,3.56.25s2.37-2.12,2.37-2.12Z"/><path class="cls-17" d="m54.96,142.86s-1.13-1.57-1.01-3.35.25-2.64.25-2.64c0,0,1.07,1.08,1.53,3.07.46,2-.77,2.92-.77,2.92Z"/><path class="cls-17" d="m55.6,144.18s-1.35-.68-3.47.03c-2.12.7-3.13,1.96-3.13,1.96,0,0,1.75.65,3.78-.03,2.03-.67,2.83-1.96,2.83-1.96Z"/><path class="cls-17" d="m61.03,147.9s-1.01-1.81-1.32-3.66.37-2.27.37-2.27c0,0,1.38,1.69,1.62,3.35.24,1.66-.68,2.58-.68,2.58Z"/><path class="cls-17" d="m62.23,149.04s-3.31-1.05-5.13-.04-3.29,2.42-3.29,2.42c0,0,2.42.83,4.73-.24,2.3-1.07,3.69-2.14,3.69-2.14Z"/><path class="cls-11" d="m120.86,92.69c-.1-1.97-.39-3.93-.88-5.84-.56-2.14-1.53-4.38-3.4-5.68-1.62-1.13-3.78-1.54-5.57-.56-1.51.83-2.27,2.42-2.6,4.05-.3,1.46-.38,2.53-.39,4.02-.05.19-.31,1.52-.36,1.7-.56,1.81-1.03,2.85-1.91,4.53-1.75,3.37-4.07,6.43-6.79,9.07-2.69,2.61-5.78,4.83-9.13,6.52.33-.29.65-.59.97-.89,3.64-3.46,5.04-6.26,7.76-10.94.37-.64,1.34-2.59,1.61-3.27.76-1.64,1.27-2.83,1.85-4.26.27-.66.53-1.32.78-1.98.23-.6.59-1.27.59-1.92,0-.52.09-.89-.43-1.01-.08-.02-.15-.03-.23-.03-.07-.14-.17-.26-.3-.35-.23-.17-.48-.2-.73-.15-.07-.21-.29-.32-.44-.53-.17-.24-1.39.81-2.23,1.58-.73.67-2.18,1.52-3.22,2.13-.85.67-3.35,1.78-4.74,2.31,0,0-.25.12-.24.12,1.49-1.18,3.85-4.13,5.01-5.65.29-.38.55-.77.79-1.18.19-.33.43-.71.41-1.1-.02-.38-.29-.67-.66-.72-.04,0-.08,0-.11,0-.02-.28-.13-.55-.37-.74-.26-.21-.6-.26-.9-.19-.05-.5-.34-.92-.98-.89-.33.02-.61.24-.69.53-2.03,1.77-4.17,3.59-6.82,4.3-2.3.61-4.79.26-6.47-1.53-1.59-1.68-2.26-4.08-2.36-6.34-.11-2.26.42-4.43,1.32-6.49.38-.86.85-1.68,1.39-2.45,2.6-1.87,5.2-3.75,7.8-5.62,1.65-1.19,3.29-2.38,4.93-3.57.82-.59,1.63-1.18,2.45-1.77.75-.54,1.53-1.06,2.25-1.64.21-.17.43-.38.61-.61.04-.03.07-.06.11-.1.02-.01.03-.02.05-.04l.06-.05c.25-.18.48-.38.6-.66.14-.33.09-.71-.18-.95-.07-.06-.15-.11-.24-.15.04-.25-.04-.51-.28-.71-.13-.11-.27-.16-.41-.19,0-.13-.04-.25-.12-.38-.27-.4-.73-.33-1.15-.22-1.23.28-2.44.63-3.62,1.07-.51.19-1.02.39-1.52.61-.31.1-.61.2-.92.3-1.47.49-2.93,1.03-4.37,1.62,2.16-1.35,4.28-2.75,6.38-4.19.52-.36,1.04-.72,1.56-1.09,1.08-.64,2.17-1.27,3.21-1.97.09-.06.19-.14.27-.23.28-.21.53-.47.66-.71.12-.22.13-.52-.13-.65-.09-.04-.19-.05-.3-.04.1-.17.14-.38.04-.54-.13-.22-.43-.25-.72-.19.08-.1.12-.23.12-.35,0-.06-.06-.14-.12-.16-.45-.13-.92.04-1.36.14-.06.01-.12.03-.18.04-4.53.5-8.97,1.71-13.1,3.65-.81.38-1.6.8-2.38,1.24-.48-1.3-.11-2.73.45-4.01,2.04-2.45,3.13-5.65,3.1-8.85-.02-2.03-.51-4.03-1.46-5.82-1.15-2.17-2.89-3.97-4.71-5.59-1.36-1.21-2.77-2.34-4.18-3.49-.47-.76-1.02-1.48-1.63-2.14-.48-.52-1.22-1.38-1.98-.82-.32.24-.5.63-.67.98-.18.37-.35.75-.49,1.14-.14.38-.26.77-.34,1.17-.23.1-.46.22-.68.31-.41.18-.82.36-1.22.54-.9.4-1.78.83-2.66,1.28-1.34.68-2.65,1.41-3.91,2.23-.37-.18-.74-.35-1.13-.49-.9-.32-1.88-.59-2.84-.62-.46-.02-.92.1-1.17.51-.24.4-.26,1.01-.3,1.47-.04.5-.04.99,0,1.49.02.18.04.36.07.54-.36.76-.87,1.47-1.42,2.12-.11.13-.22.25-.33.37-.71.67-1.43,1.31-2.16,1.95-1.67,1.46-3.37,2.87-5.04,4.33-3.14,2.74-5.98,5.72-8.28,9.21-4.36,6.62-6.83,14.36-7.97,22.17-1.3,8.86-.97,18.03,1.44,26.67,2.25,8.07,6.39,15.84,12.32,21.79.73.74,1.37,1.33,2.15,2.01.42.48.91.93,1.45,1.28,2.7,1.79,9.5,6.61,16.85,8.32,3.67.86,9.17,1.34,12.59,1.38,4.01.04,8.24-.51,10.28-.87,2.44-.44,5.42-1.17,8.17-2.16,4.2-1.5,8.19-3.61,11.71-6.35,3.05-2.38,5.73-5.22,7.93-8.4,2.2-3.18,3.93-6.67,5.06-10.36,1.12-3.65,1.65-7.47,1.47-11.28Z"/><path class="cls-16" d="m76.89,29c-.81.17-1.61.47-2.31.92-.7.45-1.41,1.03-1.75,1.81,0,.02.01.05.03.03.63-.46,1.18-1.01,1.86-1.42-.17.18-.22.5-.11.72.04.09.11.16.18.21-.5.18-1.02.24-1.56.32-.27.04-.36.48-.07.56.93.26,2.03-.19,2.74-.81.62-.55,1.08-1.27,1.29-2.08.05-.19-.14-.31-.3-.27Zm-1.14,1.73s0-.07-.02-.1c-.02-.08-.06-.15-.11-.22-.11-.14-.24-.18-.41-.18-.02,0-.04-.01-.07-.02-.06-.01-.12-.01-.18,0,.52-.29,1.07-.51,1.64-.66-.19.45-.48.86-.85,1.18Z"/><path class="cls-16" d="m75.35,36.95c-.18.34-.24.75-.4,1.1-.08.18-.2.38-.4.22-.12-.09-.23-.33-.31-.45-.21-.33-.41-.67-.6-1.02-.06-.1-.11-.21-.17-.32.29-.26.34-.68.34-1.04,0-.05,0-.09-.02-.12,0-.11-.04-.23-.13-.35-.16-.19-.36-.35-.53-.54-.17-.19-.33-.4-.47-.61-.33-.5-.61-1.05-.77-1.62-.02-.05-.1-.04-.09.02.13.69.33,1.33.69,1.94.17.29.37.57.59.83.04.05.11.11.15.17-.07.03-.13.09-.16.16-.07,0-.14-.01-.17-.01-.07,0-.13.02-.2.04-.56.2-.73.99-.17,1.3.18.1.39.1.59.04.02.31.03.61.07.92.05.34.08.67.1,1.01.01.2.12.64,0,.81-.14.21-.4-.26-.54-.35-.12-.07-.28,0-.29.15-.04.39.33.76.71.78.39.02.61-.32.64-.67.04-.46-.07-.96-.15-1.42-.02-.08-.03-.17-.05-.26.1.18.21.37.33.54.12.19.25.44.45.56.35.22.72-.03.89-.35.21-.39.41-.96.36-1.41-.01-.12-.21-.17-.27-.05Zm-2.31-1.12s-.09.03-.09.08c0,.04,0,.08,0,.12-.02.01-.03.02-.05.03-.08.02-.14-.02-.11-.12.03-.1.14-.12.25-.12,0,0,0,0,0,.01Z"/><path class="cls-16" d="m48.07,61.54c-.19-.42-.69-.82-1.12-.78-.11,0-.23.02-.34.07-.57.25-.7.93-.62,1.49.08.55.23,1.25.75,1.55.57.33,1.2.01,1.38-.59.16-.53.18-1.23-.05-1.74Z"/><path class="cls-16" d="m43.84,69.06c-.44-.23-.98-.09-1.31.26-.3.31-.42.74-.52,1.15-.07.29-.12.58-.1.86-.02.66.2,1.31.85,1.65.72.37,1.45-.01,1.74-.72.29-.69.31-1.62.05-2.32-.13-.36-.36-.69-.71-.87Z"/><path class="cls-16" d="m39.74,64.26c-.36.06-.67.35-.69.72-.02.33.21.67.52.8.09.16.29.23.49.14.26-.11.42-.35.48-.61.05-.12.08-.25.07-.38-.03-.44-.43-.75-.86-.68Z"/><path class="cls-16" d="m43.21,57.54c-.31-.61-1.1-.64-1.53-.15-.01.02-.03.03-.04.05-.33.32-.46.92-.47,1.34,0,.6.37,1.23,1.02,1.28,1.23.09,1.44-1.69,1.02-2.52Z"/><path class="cls-16" d="m68.33,33.84c-.18.69-.64,1.11-1.2,1.36.2-.12.29-.34.27-.55.04-.15,0-.32-.12-.44-.01-.01-.03-.03-.04-.04-.02-.03-.05-.06-.08-.09.37-.13.75-.23,1.15-.32.03,0,.02-.05,0-.05-1.46-.28-3.14.65-3.88,1.89-.09.14.04.33.2.32.93-.02,1.89.04,2.75-.4.32-.16.6-.38.83-.65.26-.3.36-.59.41-.98.02-.16-.23-.21-.27-.06Zm-3.26,1.67c.33-.36.68-.69,1.09-.95-.06.19-.05.4.06.55.08.11.21.18.35.12,0,0,0,0,0,0,.11.05.24.06.37.03-.58.21-1.26.26-1.87.24Z"/><path class="cls-9" d="m58.46,42.97c-.39.45-.64.92-.71,1.52-.01.1.15.16.19.05.15-.51.35-1.04.63-1.49.05-.08-.05-.15-.11-.08Z"/><path class="cls-9" d="m59.67,45.21c-.25.4-.51.8-.76,1.19-.08.12.13.25.19.12.21-.42.42-.84.64-1.27.02-.05-.04-.09-.07-.04Z"/><path class="cls-9" d="m55.48,44.13c-.09.14-.18.27-.26.41-.08.12-.15.22-.19.36-.02.09.1.14.16.08.09-.1.12-.21.17-.34.06-.16.13-.32.19-.48.02-.04-.05-.07-.07-.04Z"/><path class="cls-9" d="m54,43.09c-.13.1-.25.19-.38.29-.15.11-.26.23-.38.38-.08.11.07.21.16.14.14-.1.25-.2.36-.34.1-.13.21-.26.31-.38.04-.05-.02-.13-.08-.09Z"/><path class="cls-9" d="m52.05,40.35c-.36.42-.8.82-1.09,1.3-.08.14.11.31.23.18.38-.41.65-.95.95-1.42.03-.05-.05-.11-.09-.06Z"/><path class="cls-9" d="m52.77,37.48c-.4.15-.69.39-.9.76-.08.14.15.26.22.11.16-.32.41-.62.7-.82.03-.02,0-.06-.03-.05Z"/><path class="cls-9" d="m48.3,41.1l-.41.36s0,.06.03.04l.41-.36s0-.07-.03-.05Z"/><path class="cls-9" d="m50.17,38.45c-.41.35-.8.74-1.02,1.23-.07.15.18.26.26.12.25-.45.47-.89.84-1.26.05-.05-.03-.13-.08-.09Z"/><path class="cls-9" d="m48.27,39.05c-.42.44-.84.87-1.25,1.32-.08.09.07.22.15.12.4-.46.77-.92,1.16-1.39.03-.03-.03-.08-.05-.05Z"/><path class="cls-9" d="m54.42,39.16c-.19.13-.36.33-.51.5-.17.18-.33.37-.46.58-.08.12.1.23.2.14.15-.15.28-.31.41-.48.15-.2.34-.44.44-.67.02-.05-.03-.1-.07-.07Z"/><path class="cls-9" d="m55.55,40.72c-.17.24-.35.47-.53.71-.09.11.12.25.19.12.14-.26.28-.51.43-.77.03-.05-.06-.11-.09-.06Z"/><path class="cls-9" d="m57.27,41.45c-.23.33-.48.65-.67,1-.04.07.07.12.11.07.24-.32.43-.67.64-1.02.03-.05-.05-.1-.08-.05Z"/><path class="cls-9" d="m60.43,47.61c-.06.15-.12.31-.18.46-.03.08.1.13.13.05.05-.16.1-.32.14-.49.02-.06-.07-.08-.09-.03Z"/><path class="cls-9" d="m62.73,46.63c-.24.33-.48.75-.44,1.17,0,.1.16.12.19.02.06-.19.08-.39.14-.58.05-.18.13-.36.22-.53.04-.08-.06-.15-.11-.08Z"/><path class="cls-9" d="m62.81,49.86c-.19.38-.32.8-.33,1.22,0,.08.12.1.13.02.04-.42.11-.82.27-1.21.02-.04-.05-.08-.07-.04Z"/><path class="cls-9" d="m57.82,48.46c-.22.31-.46.62-.64.96-.05.09.1.19.16.1.22-.32.38-.68.55-1.03.02-.04-.04-.07-.07-.03Z"/><path class="cls-9" d="m55.35,46.55c-.26.35-.49.7-.7,1.08-.12.21.22.39.32.18.18-.39.34-.78.48-1.19.02-.06-.06-.12-.1-.06Z"/><path class="cls-9" d="m52.86,45.44c-.2.29-.4.58-.56.9-.05.1.09.17.15.08.2-.29.37-.59.54-.9.04-.08-.06-.16-.12-.08Z"/><path class="cls-9" d="m51.66,43.74c-.07.12-.14.24-.22.35-.07.12.11.24.18.12.07-.13.14-.25.21-.38.06-.1-.11-.2-.17-.1Z"/><path class="cls-16" d="m45.88,81.35c-.56-.53-1.43-.38-1.87.24-.45.64-.29,1.44.03,2.1.14.49.35,1,.88,1.12,1.63.36,1.83-2.65.97-3.46Z"/><path class="cls-16" d="m63.82,85.02c-.28-.29-.74-.3-1,.02-.16.19-.22.48-.25.76-.05.13-.07.25-.07.36,0,.47.43.76.86.64.33-.09.52-.39.6-.71.09-.35.13-.79-.14-1.08Z"/><path class="cls-16" d="m58.44,89.14c-.02-.55-.44-1.08-1.02-1.1-.78-.03-1.16.76-1.31,1.41-.14.61-.28,1.56.32,1.97.6.41,1.3-.05,1.63-.58.25-.4.39-.91.36-1.4.02-.1.03-.19.02-.3Z"/><path class="cls-16" d="m34.85,78.9c-.21-.5-.72-.79-1.24-.56-.56.25-.74.93-.72,1.49,0,.27.07.61.2.9.13.38.36.71.65.85,1.35.62,1.41-1.99,1.12-2.69Z"/><path class="cls-16" d="m38.33,83.74c-.19.02-.38.14-.49.3-.05.08-.09.17-.1.26-.11.44,0,1.1.57,1.09.45,0,.67-.44.71-.84.05-.42-.21-.88-.69-.82Z"/><path class="cls-16" d="m43.62,88.64c-.15-.08-.29-.11-.43-.1-.36-.11-.81.1-1.04.42-.45.62-.52,1.65-.39,2.37.13.69.76,1.18,1.45.83.55-.28.81-1.02.92-1.59.13-.65.18-1.57-.51-1.93Z"/><path class="cls-9" d="m108.51,105.51c-.23.17-.4.46-.56.7-.17.25-.31.48-.42.76-.02.05.05.1.1.07.24-.19.42-.4.61-.63.18-.21.41-.45.5-.71.05-.14-.1-.28-.23-.19Z"/><path class="cls-9" d="m112.21,105.7c-.25.11-.4.35-.54.57-.15.24-.3.49-.45.73-.05.09.08.15.14.09.2-.2.4-.39.6-.59.18-.18.39-.38.44-.64.02-.1-.09-.21-.19-.17Z"/><path class="cls-9" d="m108.24,110.78c-.26.31-.46.66-.67,1.01-.03.04.03.08.06.04.26-.31.52-.62.72-.97.04-.07-.06-.14-.11-.08Z"/><path class="cls-9" d="m113.26,110.34c-.17.11-.26.3-.36.47-.11.19-.22.39-.33.58-.04.06.05.13.1.08.14-.17.29-.34.43-.51.12-.14.28-.29.32-.48.02-.09-.07-.2-.16-.14Z"/><path class="cls-9" d="m109.36,100.62c-.2.21-.3.54-.4.82-.12.31-.2.63-.3.94-.02.06.06.09.09.04.17-.28.36-.54.52-.82.15-.26.33-.55.38-.85.02-.17-.18-.23-.29-.12Z"/><path class="cls-9" d="m113.34,99.94c-.29.49-.44,1.12-.64,1.66-.01.03.04.06.06.03.3-.48.72-.97.93-1.49.09-.23-.21-.42-.35-.19Z"/><path class="cls-9" d="m115.93,104.81c-.22.08-.35.33-.48.51-.18.26-.38.57-.46.88-.02.09.09.13.16.09.23-.16.39-.4.56-.61.16-.2.41-.47.4-.74,0-.08-.09-.15-.17-.13Z"/><path class="cls-9" d="m117.06,98.89c-.17.28-.27.6-.4.91-.05.12.13.18.18.07.14-.29.3-.58.4-.88.03-.1-.12-.2-.18-.09Z"/><path class="cls-9" d="m110.64,96.04c-.18.53-.36,1.07-.54,1.6-.04.11.12.18.16.07.21-.52.42-1.03.64-1.55.07-.18-.21-.3-.27-.13Z"/><path class="cls-9" d="m106.27,99.98c-.23.39-.39.8-.56,1.22-.02.05.05.08.08.04.23-.38.46-.75.63-1.17.04-.09-.1-.18-.15-.09Z"/><path class="cls-9" d="m105.86,104.59c-.09.05-.18.11-.24.19-.08.1-.13.24-.2.35-.12.19-.28.37-.36.58-.04.1.09.2.18.14.18-.12.32-.3.48-.46.1-.1.24-.18.33-.29.07-.08.1-.19.13-.29.06-.17-.17-.31-.31-.22Z"/><path class="cls-9" d="m102.03,106c-.26.17-.44.39-.64.63-.21.24-.41.48-.59.74-.03.04.02.1.07.07.27-.18.5-.38.75-.59.24-.21.48-.39.65-.67.09-.14-.12-.26-.23-.19Z"/><path class="cls-9" d="m104.18,109.44c-.27.14-.5.44-.69.67-.21.27-.4.55-.61.83-.06.09.05.2.14.13.29-.22.59-.43.87-.67.22-.19.48-.4.61-.66.09-.18-.14-.39-.32-.3Z"/><path class="cls-9" d="m104.66,114.75c-.11-.1-.22-.06-.34-.02-.28.09-.47.42-.65.64-.18.23-.34.47-.5.71-.08.12.09.26.2.18.27-.18.54-.36.79-.57.21-.18.46-.34.57-.6.05-.12.03-.25-.07-.34Z"/><path class="cls-9" d="m109.64,114.87c-.38.61-.87,1.14-1.39,1.63-.05.05.02.14.08.1.65-.38,1.15-.91,1.57-1.53.12-.18-.16-.38-.27-.2Z"/><path class="cls-9" d="m104.42,119.13c-.39.33-.74.71-1.09,1.08-.18.19.11.46.3.28.37-.35.75-.69,1.07-1.08.16-.2-.09-.44-.28-.28Z"/><path class="cls-9" d="m99.98,114.31c-.24.1-.42.34-.6.53-.18.19-.37.38-.55.57-.05.05.02.14.08.1.24-.16.48-.32.72-.48.2-.14.44-.25.57-.46.1-.15-.07-.32-.23-.26Z"/><path class="cls-9" d="m96.88,110.05c-.29.18-.49.47-.72.72-.21.23-.42.46-.62.69-.08.09.06.21.15.14.27-.22.53-.45.8-.67.23-.19.48-.36.65-.61.11-.16-.1-.36-.26-.27Z"/><path class="cls-9" d="m90.1,113.38c-.39.15-.81.26-1.17.47-.05.03-.03.13.03.12.41-.05.82-.21,1.21-.33.17-.05.09-.32-.07-.26Z"/><path class="cls-9" d="m93.91,115.61c-.3.14-.55.43-.81.64-.22.18-.43.35-.65.53-.08.06,0,.18.09.13.27-.18.53-.35.8-.53.25-.16.56-.3.76-.52.11-.12-.05-.31-.19-.25Z"/><path class="cls-9" d="m98.38,119.15c-.27.03-.42.21-.63.37-.25.21-.52.39-.79.59-.08.06,0,.17.09.13.24-.13.47-.26.71-.39.27-.14.59-.22.74-.49.05-.09-.03-.21-.13-.2Z"/><path class="cls-9" d="m100.29,123.41c-.44.16-.83.49-1.21.75-.42.28-.83.56-1.25.85-.08.06,0,.2.09.15.42-.22.84-.44,1.26-.67.43-.23.92-.44,1.29-.76.14-.12,0-.39-.18-.32Z"/><path class="cls-9" d="m93.81,123.97c-.27.09-.51.22-.76.36-.29.16-.56.3-.8.52-.07.06-.03.18.07.17.31-.03.57-.13.86-.24.28-.1.56-.19.81-.34.24-.14.11-.57-.18-.48Z"/><path class="cls-9" d="m91.68,119.95c-.56.12-.94.66-1.3,1.06-.04.05,0,.14.07.11.48-.18,1.13-.35,1.43-.81.09-.14.01-.41-.2-.36Z"/><path class="cls-9" d="m86.24,118.47c-.19-.02-.35.06-.53.12-.21.07-.4.15-.6.24-.07.03-.06.15.02.14.21-.03.42-.05.62-.09.18-.04.38-.05.53-.16.08-.06.09-.23-.04-.25Z"/><path class="cls-9" d="m87.42,123.58c-.69.27-1.36.54-2.03.86-.11.05-.05.23.07.21.71-.15,1.41-.35,2.11-.54.34-.1.17-.64-.15-.52Z"/><path class="cls-9" d="m88.23,127.43c-.31-.01-.59.26-.84.42-.29.19-.54.42-.81.64-.1.08,0,.25.12.21.33-.11.66-.2.97-.34.3-.14.65-.23.83-.53.12-.2-.08-.4-.27-.41Z"/><path class="cls-9" d="m115.62,94.38c-.02-.08-.12-.12-.2-.09-.29.11-.33.52-.37.8-.04.3-.02.55.07.84.02.06.13.07.14,0,.04-.27.08-.56.16-.82.08-.25.27-.46.2-.72Z"/><path class="cls-9" d="m119.4,91.97c-.02-.27-.42-.25-.42.03,0,.69.14,1.39.23,2.07,0,.07.11.05.11-.01.04-.69.13-1.39.08-2.08Z"/><path class="cls-9" d="m109.13,92.96c-.01-.1-.16-.19-.23-.09-.15.21-.17.49-.22.74-.05.27-.09.55-.13.82,0,.06.08.07.1.02.11-.29.23-.57.33-.86.07-.21.18-.41.15-.63Z"/><path class="cls-9" d="m112.74,91.15c-.05-.11-.19-.13-.26-.02-.12.2-.09.45-.08.68,0,.32.04.64.06.96,0,.05.09.08.1.02.06-.3.12-.6.17-.9.04-.24.11-.5,0-.73Z"/><path class="cls-9" d="m115.77,88.09c-.07-.21-.39-.18-.39.05,0,.58.23,1.23.42,1.78.02.04.09.05.09,0,.02-.58.07-1.27-.12-1.83Z"/><path class="cls-9" d="m111.11,88.24c0-.14-.21-.19-.27-.06-.11.24-.1.48-.11.73-.02.37-.06.73-.11,1.09,0,.03.04.04.05,0,.08-.33.14-.66.25-.99.09-.26.2-.51.18-.79Z"/><path class="cls-9" d="m112.82,84.51c.02.43.11.86.16,1.28,0,.04.07.04.08,0,.06-.42.14-.85.16-1.28.01-.26-.41-.25-.4,0Z"/><path class="cls-9" d="m118.69,87.63c-.26-.55-.38-1.12-.37-1.74,0-.24-.39-.25-.37-.01.05.66.25,1.26.6,1.83.05.08.19,0,.15-.08Z"/><path class="cls-16" d="m53.02,104.25c-.41-.36-1.01-.22-1.26.24-.13.23-.17.51-.15.79-.11.69.24,1.52.93,1.64,1.31.23,1.14-2.09.48-2.67Z"/><path class="cls-16" d="m65.87,99.52c-.35-.62-1.17-.96-1.79-.48-.18.13-.3.31-.38.51-.62.76-.51,2.37.29,2.89.69.45,1.52.03,1.89-.63.38-.68.38-1.61,0-2.29Z"/><path class="cls-16" d="m74.41,95.3c-.04-.35-.24-.81-.64-.83-.08,0-.17.01-.24.05-.56-.07-1.01.64-.84,1.17.18.57.91.78,1.38.43.25-.19.37-.51.34-.82Z"/><path class="cls-16" d="m72.95,102.77c-.15-.04-.32.03-.43.14-.11.05-.21.13-.28.24-.36.49-.51,1.5.11,1.85.61.35,1.09-.19,1.28-.72.22-.64.02-1.32-.68-1.51Z"/><path class="cls-16" d="m63.74,109.15c-.04-.29-.14-.46-.31-.62-.07-.15-.18-.27-.33-.36-.96-.53-1.54.7-1.54,1.47,0,.47.11,1.02.45,1.36.34.35.89.38,1.24.03.32-.31.45-.84.5-1.27.02-.2.04-.42,0-.62Z"/><path class="cls-16" d="m47.03,110.07c0-.06,0-.12-.03-.19-.02-.06-.04-.12-.08-.18,0,0,0-.02-.01-.03-.05-.12-.14-.2-.25-.23-.09-.05-.19-.07-.3-.07-.64.04-.79.85-.68,1.35.05.23.15.51.34.66.24.19.58.16.78-.08.27-.34.3-.81.22-1.24Z"/><path class="cls-9" d="m66.11,49.86c-.13.26-.29.58-.28.88,0,.1.15.12.18.03.11-.27.13-.59.22-.87.02-.07-.09-.1-.12-.04Z"/><path class="cls-9" d="m66.11,46.76c-.07.22-.16.43-.2.66-.01.08.11.11.14.04.08-.22.1-.45.14-.67,0-.05-.07-.07-.08-.02Z"/><path class="cls-9" d="m60.31,49.74c-.11.22-.23.43-.31.66-.03.1.12.15.16.06.12-.22.18-.45.26-.68.02-.07-.08-.1-.11-.04Z"/><path class="cls-9" d="m61.82,44.38c-.13.16-.17.38-.23.57-.07.21-.13.42-.19.64-.03.1.12.15.15.05.07-.2.14-.4.21-.61.06-.2.15-.41.14-.63,0-.04-.06-.05-.08-.02Z"/><path class="cls-9" d="m77.71,33.1c-.84.38-1.62,1.16-2.11,1.93-.07.11.08.23.16.12.31-.37.63-.73,1-1.05.34-.29.72-.52,1.08-.78.12-.09,0-.29-.13-.23Z"/><path class="cls-9" d="m78.3,34.25c-.71.38-1.3.98-1.9,1.5-.02.02,0,.05.03.04.68-.4,1.44-.77,2.03-1.31.12-.11-.02-.31-.16-.23Z"/><path class="cls-9" d="m78.8,35.45c-.7.42-1.4.84-2.1,1.28-.04.02,0,.08.04.07.77-.29,1.52-.7,2.16-1.21.08-.06-.02-.19-.11-.14Z"/><path class="cls-9" d="m70.84,37.11c-1.06.31-2.26.92-3.05,1.7-.14.13.06.31.21.23.52-.3.99-.69,1.5-1,.46-.29.93-.56,1.38-.86.04-.02,0-.08-.03-.06Z"/><path class="cls-9" d="m71.11,38.5c-.47.13-.89.35-1.27.65-.37.28-.85.7-.97,1.17-.03.13.15.24.25.16.33-.26.54-.67.83-.98.36-.36.76-.67,1.18-.95.02-.01.01-.05-.02-.04Z"/><path class="cls-9" d="m71.42,39.8c-.74.5-1.42,1.22-1.75,2.06-.06.15.16.25.25.12.5-.73.97-1.44,1.57-2.1.04-.04-.01-.12-.06-.09Z"/><path class="cls-9" d="m64.72,45.24c-.11.45-.21.88-.24,1.35,0,.1.16.12.18.02.09-.45.11-.9.13-1.36,0-.04-.06-.04-.07,0Z"/><path class="cls-9" d="m68.57,48.28s-.09-.05-.09,0c0,.45-.11.88-.17,1.32-.02.11.14.16.18.06.19-.44.17-.92.08-1.38Z"/><path class="cls-9" d="m70.09,51.55c0-.16.02-.35-.06-.49-.02-.03-.06-.04-.08,0-.1.14-.1.32-.12.49-.03.19-.05.37-.04.56,0,.18.25.2.28.02.03-.19.03-.38.03-.57Z"/><path class="cls-9" d="m66.19,52.05s-.07-.05-.07,0c-.04.29-.12.64-.07.93.02.12.18.11.2,0,.05-.29-.02-.64-.06-.93Z"/><path class="cls-9" d="m68.03,46.2s-.07-.04-.08,0c-.08.13-.09.3-.1.45-.02.14-.02.28-.02.42,0,.13.19.16.21.02.02-.14.04-.27.04-.4,0-.15.02-.34-.04-.48Z"/><path class="cls-9" d="m74.87,51.14s-.05-.03-.05,0c-.03.43-.09.86-.05,1.29,0,.09.15.08.16-.01.04-.42-.02-.86-.05-1.28Z"/><path class="cls-9" d="m76.16,50.52c-.08-.38-.14-.8-.3-1.16-.02-.04-.09-.03-.09.02,0,.39.11.79.19,1.17.03.13.23.1.2-.02Z"/><path class="cls-9" d="m76.8,49.86s-.04-.02-.03,0c.04.2.08.41.12.61,0,.03.04.02.04,0l-.12-.61Z"/><path class="cls-9" d="m77.4,49.11c-.07-.18-.13-.36-.2-.53-.02-.06-.13-.04-.11.02.06.19.11.37.17.56.03.09.16.03.13-.05Z"/><path class="cls-9" d="m78.28,48.4c-.01-.06-.1-.04-.09.01.03.28.06.57.1.85.01.09.16.07.15-.02-.05-.28-.1-.56-.15-.85Z"/><path class="cls-9" d="m78.37,50.82c-.09-.25-.13-.51-.11-.77,0-.03-.04-.03-.04,0-.06.28-.05.54.05.81.03.07.13.04.11-.03Z"/><path class="cls-9" d="m79.56,50.34c-.09-.22-.17-.44-.27-.66,0,0-.01,0-.01,0,.06.23.14.46.21.68.02.05.09.02.07-.03Z"/><path class="cls-9" d="m71.31,47.49s-.07-.04-.07,0c-.02.35-.04.69,0,1.04.01.13.2.1.2-.02,0-.35-.06-.68-.12-1.02Z"/><path class="cls-9" d="m71.6,50.22s-.07-.03-.07,0c-.05.28,0,.58.03.86.01.09.14.07.14-.01,0-.28,0-.58-.09-.86Z"/><path class="cls-9" d="m72.74,49.54c-.21.38-.32.82-.22,1.25.02.1.16.07.15-.03-.04-.41-.03-.8.12-1.19.01-.04-.04-.07-.06-.03Z"/><path class="cls-9" d="m74.09,48.22s-.07-.04-.07,0c-.01.34-.03.69-.03,1.03,0,.08.12.07.13,0,0-.34-.01-.69-.03-1.03Z"/><path class="cls-9" d="m73.41,51.2s-.05-.04-.06,0c-.03.36-.07.73-.06,1.1,0,.12.18.11.18,0,.01-.36-.04-.73-.06-1.09Z"/><path class="cls-9" d="m58.48,29.46c-.36-.35-.75-.65-1.19-.89-.31-.17-.86-.54-1.21-.53-.35,0-.36.32-.38.59-.04.57-.09,1.32.22,1.82.02.03.08.04.09,0,.09-.37-.24-2.2.16-2.28.09-.02.31.12.41.16.26.12.51.28.74.45.35.25.66.55.94.87.12.14.34-.06.21-.18Z"/><path class="cls-9" d="m72.11,23.22c-.16-.49-.43-.94-.75-1.35-.15-.19-.52-.75-.81-.71-.27.03-.45.75-.51.93-.15.49-.25,1.06-.14,1.57.01.05.07.05.08,0,.15-.67.18-1.38.48-2.02.23-.5.64.27.79.5.24.37.4.76.56,1.16.07.18.35.1.29-.09Z"/><path class="cls-16" d="m47.5,55.44c-.38-.04-.71.21-.88.53-.01.02-.02.04-.04.05-.23.37-.36.85-.12,1.25.23.37.68.5,1.06.27.37-.22.62-.71.66-1.13.05-.43-.22-.92-.69-.97Z"/><path class="cls-16" d="m44.43,51.92c-.07-.07-.18-.08-.26-.04-.27.13-.51.3-.58.6-.07.28.04.58.3.71.4.2.78-.13.77-.48.06-.29-.03-.58-.23-.8Z"/><path class="cls-16" d="m40.55,49.81c-.08-.33-.27-.52-.5-.59-.11-.09-.25-.16-.41-.17-.51-.04-.96.44-1.2.84-.26.43-.31.99.04,1.38.82.89,2.29-.54,2.06-1.47Z"/><path class="cls-16" d="m37.77,59.58c-.2-.55-.8-.64-1.26-.42-.15.03-.3.09-.42.18-.53.41-.7,1.39-.42,1.99.29.63,1.08.73,1.48.16.2-.28.35-.62.49-.94.14-.31.25-.64.13-.97Z"/><path class="cls-16" d="m36.8,69.27c-.03-.08-.08-.15-.13-.21-.09-.3-.32-.46-.75-.34-.55.15-.8.88-.91,1.37-.11.46-.15,1.08.34,1.34,1.06.54,1.77-1.39,1.46-2.15Z"/><path class="cls-16" d="m40.29,75.15c-.08-.12-.19-.21-.32-.26-.17-.27-.53-.36-.84-.24-.85.32-.74,1.53.05,1.83.78.3,1.58-.62,1.11-1.34Z"/><path class="cls-16" d="m53.27,67.68c-.19-.05-.39.02-.54.17-.22.24-.29.6-.26.92.03.3.15.62.41.79.28.18.66.11.82-.2.13-.25.21-.65.22-.93.01-.43-.26-.75-.66-.75Z"/><path class="cls-16" d="m57.03,61.82c-.23-.51-.89-.86-1.33-.49-.17.06-.33.17-.45.32-.44.56-.47,1.49-.11,2.09.38.63,1.14.61,1.56.03.4-.55.62-1.3.32-1.95Z"/><path class="cls-16" d="m50.78,74.88c-.15-.11-.33-.16-.5-.16-.21-.12-.47-.13-.72-.02-.51.25-.62.81-.59,1.33.03.58.21,1.27.86,1.42.63.15,1-.39,1.17-.92.17-.53.29-1.28-.23-1.66Z"/><path class="cls-16" d="m56.91,73.16c-.25-.06-.46.04-.61.21-.08.05-.15.12-.22.19-.32.37-.35.99-.09,1.39.21.33.62.51.99.32.4-.2.5-.68.5-1.09,0-.41-.11-.93-.57-1.03Z"/><path class="cls-16" d="m64.52,68.39c-.31-.37-.72-.37-1.06-.18-1.26.14-1.88,2.6-.61,3.11,1.3.53,2.42-2.03,1.67-2.93Z"/><path class="cls-16" d="m64.89,62.24c-.1-.39-.41-.64-.76-.67,0,0,0,0-.01,0-.55-.28-1.02.29-1.19.74-.22.6-.34,1.41.04,1.95.35.51,1.02.36,1.35-.1.33-.47.72-1.33.57-1.92Z"/><path class="cls-16" d="m70.29,65.96s-.06-.07-.09-.09c-.36-.29-.82-.03-1,.31-.2.38-.35.88-.09,1.27.22.33.65.44.99.22.27-.18.44-.55.49-.86.06-.31-.04-.66-.3-.84Z"/><path class="cls-16" d="m57.14,54.93c-.12-.41-.52-.66-.9-.5-.26.05-.5.26-.6.51-.11.28-.17.63-.19.93-.02.25.06.51.25.68.4.35.99.15,1.26-.26.26-.39.31-.91.17-1.36Z"/><path class="cls-16" d="m67.54,55.3c-.25-.06-.47-.03-.64.08-.09.02-.19.05-.27.11-1.03.66-.51,2.79.86,2.36,1.05-.33,1.22-2.25.05-2.55Z"/><path class="cls-16" d="m72.98,58.75c-.1-.06-.21-.1-.33-.1-1.05-.07-1.32,1.69-.61,2.24.87.67,1.55-.73,1.53-1.43,0-.36-.26-.65-.59-.7Z"/><path class="cls-16" d="m51.21,52.25c-.03-.24-.11-.48-.25-.69-.16-.35-.52-.57-.91-.59-1.15-.06-1.67,1.66-.95,2.42.32.34.84.42,1.27.26.57-.21.9-.8.83-1.41Z"/><path class="cls-16" d="m63.43,76.46c-.03-.05-.07-.1-.11-.15,0,0,0,0,0,0-.37-.66-1.21-.53-1.7-.11-.51.42-.8,1.09-.87,1.74-.07.6.12,1.29.76,1.5.7.22,1.32-.27,1.67-.83.37-.58.64-1.51.26-2.14Z"/><path class="cls-16" d="m71.65,73.85c-.18-.18-.4-.26-.6-.24-.16-.04-.33-.02-.5.09-.42.27-.51,1.01-.42,1.46.1.48.49.87.99.89,1.17.05,1.16-1.59.53-2.2Z"/><path class="cls-16" d="m70.9,82.16c-.13-.31-.39-.52-.67-.59-.17-.15-.41-.21-.7-.09-.56.21-.71.98-.68,1.5.03.56.27,1.25.74,1.6,1.42,1.04,1.67-1.61,1.31-2.41Z"/><path class="cls-16" d="m55.82,81.91c-.3-.16-.6-.13-.85.02-.34.03-.68.23-.89.52-.59.81-.48,2.86.96,2.41.99-.31,2.01-2.32.78-2.95Z"/><path class="cls-16" d="m50.53,93.2c-.15-.42-.68-.67-1.07-.4-.53.38-.31,1.25,0,1.69.18.26.53.28.71,0,.09-.13.15-.27.19-.42.17-.27.28-.57.17-.89Z"/><path class="cls-16" d="m37.24,94.52c-.73-.26-1.02.84-.99,1.37.03.48.38,1.13.95.8.28-.17.39-.48.41-.81.14-.51.15-1.16-.37-1.35Z"/><path class="cls-16" d="m67.24,91.07c-.38-.49-1.05-.47-1.53-.14-.85.59-1.11,2.21-.06,2.76.74.39,1.46-.34,1.66-1.11.21-.49.29-1.05-.07-1.5Z"/><path class="cls-16" d="m71.26,118.77c-.38-.49-1.05-.47-1.53-.14-.85.59-1.11,2.21-.06,2.76.74.39,1.46-.34,1.66-1.11.21-.49.29-1.05-.07-1.5Z"/><path class="cls-16" d="m57.81,98.94c-.01-.07-.03-.13-.06-.2-.01-.06-.03-.12-.06-.18-.15-.33-.53-.51-.88-.36-.71.31-.79,1.62-.1,1.99.33.17.72.08.94-.21.23-.3.22-.68.15-1.03Z"/><path class="cls-16" d="m46.27,101.28c-.03-.16-.08-.33-.15-.48,0-.33-.12-.65-.41-.9-.52-.43-1.28-.21-1.63.33-.62.95.08,3.17,1.48,2.56.58-.25.82-.9.72-1.5Z"/><path class="cls-16" d="m54.78,113.71c-.17-.6-.85-1.04-1.46-.8-.35.14-.58.34-.69.72-.07.23-.08.47-.06.71.04.83.51,1.52,1.43,1.4.28-.04.48-.31.53-.59.3-.4.38-.99.25-1.44Z"/><path class="cls-16" d="m73.97,110.81c-.6-.87-1.86-.6-2.23.31-.23.58-.15,1.32.34,1.73.06.12.14.24.25.33.59.54,1.43.1,1.69-.55.22-.56.31-1.31-.04-1.83Z"/><path class="cls-16" d="m81.69,99.5c-.07-.55-.45-1.08-1.07-.98-.24.04-.46.19-.64.4-.91.54-.71,2.48.47,2.54.92.04,1.35-1.19,1.25-1.95Z"/><path class="cls-16" d="m62.16,117.92c-.7-.04-1.19.34-1.46.88-.43.6-.53,1.54-.13,2.14.1.15.21.26.35.36,0,0,0,0,0,0,.39.45.96.45,1.32.16.07-.03.14-.05.21-.09,1.3-.69,1.55-3.34-.28-3.45Z"/><path class="cls-15" d="m79.12,31.54s0-.02,0-.03c0-.25-.11-.49-.35-.61-.03-.02-.06-.03-.09-.04-.12-.06-.27-.09-.41-.07-.66.09-1.45.9-.87,1.54.2.22.44.3.68.29.15,0,.3-.03.44-.1.35-.18.62-.57.6-.97Z"/><path class="cls-15" d="m66.47,37.39c-.66-.31-1.84.37-1.74,1.1,0,.11.01.23.05.34.15.44.64.67,1.08.6.84-.13,1.59-1.58.6-2.04Z"/><path class="cls-5" d="m125.86,118.27s-4.77-.18-7.33,5.41c-1.69,3.69-2.08,3.48-5.94,6.1-4.08,2.77-6.05,11.14-2.87,14.9,2.39,2.82,11.7,6.91,16.47,4.3,6.59-3.61,2.98-12.93,2.25-16.59-.73-3.67,1.84-5.99.83-10.12-.79-3.22-3.4-4-3.4-4h0Z"/><path class="cls-16" d="m128.44,113.11c-1,1.19-2.38,4.7-2.38,4.7,0,0,3.76.38,5.32-1s2.82-7.01,2.82-7.01c0,0-4.76,2.13-5.76,3.32Z"/><path class="cls-16" d="m125.31,117.68s-.86-.42-1.15-1.33c-.29-.91-.02-2.53-.02-2.53,0,0,.98.6,1.29,1.35.31.75-.11,2.51-.11,2.51Z"/><path class="cls-16" d="m120.32,144.82c-.08.12-.12.26-.17.39-.05.13-.12.26-.18.39-.02.05.05.08.07.04.07-.14.15-.27.22-.4.07-.11.15-.22.2-.35.04-.1-.09-.16-.14-.07Z"/><path class="cls-18" d="m122.27,144.13c-.15.27-.26.58-.37.87-.02.06.06.09.09.03.14-.28.3-.55.41-.84.03-.07-.08-.13-.12-.06Z"/><path class="cls-16" d="m121.1,142.84c-.05.21-.08.42-.12.63,0,.05.06.06.07.02.06-.2.13-.4.19-.61.03-.09-.12-.13-.14-.04Z"/><path class="cls-18" d="m124.2,143.2c-.16.35-.25.74-.39,1.1-.02.06.06.09.09.03.17-.35.39-.69.54-1.05.06-.15-.17-.23-.24-.09Z"/><path class="cls-18" d="m125.63,140.53c0-.08-.13-.07-.14.01-.04.43-.08.83-.26,1.23-.01.03.03.05.05.03.22-.38.39-.82.36-1.26Z"/><path class="cls-18" d="m126.17,142.68s-.08-.03-.11,0c-.03.03-.06.05-.09.09-.02.03-.04.07-.06.1-.03.05-.06.09-.07.14,0,.03.02.05.05.04.05-.02.09-.06.13-.09.06-.05.12-.09.16-.16.02-.04.02-.08,0-.11Z"/><path class="cls-18" d="m124.32,139.36c-.16.23-.2.52-.26.79-.06.29-.12.58-.16.87,0,.06.08.1.11.04.13-.29.24-.58.34-.88.09-.24.19-.5.18-.76,0-.1-.15-.14-.21-.06Z"/><path class="cls-18" d="m126.11,138.42c-.18.34-.2.82-.23,1.19,0,.05.06.06.08.02.08-.2.15-.4.21-.6.05-.18.13-.36.12-.55,0-.09-.13-.16-.18-.06Z"/><path class="cls-18" d="m127.16,139.97c-.2.23-.25.63-.25.93,0,.06.1.07.11.01.02-.16.06-.31.12-.45.05-.14.14-.26.19-.39.03-.1-.09-.17-.16-.09Z"/><path class="cls-18" d="m127.54,142.35c-.12.2-.16.38-.22.6-.04.15-.09.29-.11.45,0,.05.07.1.1.05.11-.17.19-.38.27-.57.07-.16.12-.3.15-.48.01-.1-.14-.14-.19-.06Z"/><path class="cls-18" d="m126.02,144.78c-.21.29-.35.63-.5.96-.01.03.03.06.05.03.22-.29.46-.57.62-.9.05-.1-.1-.17-.17-.09Z"/><path class="cls-18" d="m124.01,145.76c-.13.12-.21.28-.3.43-.08.13-.16.25-.24.38-.05.08.07.15.13.08.1-.12.2-.25.29-.37.1-.13.22-.26.29-.41.04-.1-.1-.17-.17-.1Z"/><path class="cls-18" d="m121.64,146.17c-.08.13-.15.27-.2.41-.05.12-.1.22-.11.35,0,.04.05.07.08.04.2-.16.34-.46.46-.69.06-.13-.15-.23-.22-.11Z"/><path class="cls-18" d="m119.4,146.86c-.09.11-.17.22-.23.35-.05.1-.11.19-.07.31.01.04.06.06.1.06.13-.02.2-.16.27-.26.07-.11.11-.22.16-.34.06-.14-.14-.21-.22-.11Z"/><path class="cls-18" d="m118.19,144.57c-.22.3-.31.66-.38,1.02-.01.06.07.1.1.05.21-.3.4-.62.48-.98.02-.1-.13-.19-.2-.1Z"/><path class="cls-18" d="m119.59,142.99c-.22.38-.38.81-.56,1.22-.03.07.08.13.12.06.22-.38.47-.77.64-1.18.05-.13-.12-.23-.2-.1Z"/><path class="cls-18" d="m120.72,141.28c-.05.14-.1.28-.15.42-.02.04.04.07.07.03.07-.13.14-.26.21-.39.05-.09-.09-.16-.12-.06Z"/><path class="cls-18" d="m122.88,141.51c-.01-.07-.1-.07-.14-.03-.13.11-.17.29-.21.45-.05.2-.11.4-.14.6,0,.07.1.11.13.04.09-.16.16-.33.23-.5.07-.18.17-.37.13-.56Z"/><path class="cls-5" d="m132.29,112.07c-1.56,1.84-3.25,3.55-5.04,5.16-.02.02,0,.05.02.03,1.97-1.4,3.72-3.09,5.24-4.97.13-.16-.09-.39-.22-.23Z"/><path class="cls-6" d="m127.71,123.75c-.07-.16-.26-.22-.41-.14-.06.03-.11.08-.15.14-.05.09-.05.17-.01.26,0,0,0,0,0,0-.03.16-.05.36.11.46.35.21.58-.47.47-.72Z"/><path class="cls-6" d="m126.4,126.38c-.55-.3-.81.76-.61,1.11.02.03.05.06.08.07.05.05.13.07.22.07.49-.04.78-1,.31-1.25Z"/><path class="cls-6" d="m128.53,125.68c-.03-.09-.11-.16-.21-.17-.11,0-.18.04-.24.13-.02.03-.04.06-.04.1,0,0,0,.01,0,.02-.05.11-.07.24-.08.33-.01.12.02.24.13.3.1.06.22.03.31-.04.19-.15.21-.44.14-.66Z"/><path class="cls-6" d="m126.81,129.36c-.15-.24-.48-.23-.67-.04-.24.24-.31.62-.3.95,0,.05.02.1.04.14.06.17.18.3.39.3.31,0,.44-.34.52-.58.07-.22.15-.54.02-.75Z"/><path class="cls-6" d="m125.52,124.9c-.01-.11-.04-.18-.12-.25-.01-.04-.04-.07-.09-.09-.08-.03-.14-.01-.19.03-.12.05-.2.19-.15.32-.03.14-.03.29,0,.44.02.11.18.18.28.11.13-.09.22-.21.26-.36.02-.07.02-.13.02-.2Z"/><path class="cls-6" d="m125.45,132.1c-.05-.22-.17-.28-.36-.39-.21-.11-.49.01-.52.24-.09.17-.1.41-.11.58-.01.22-.03.49.15.65.17.16.43.14.59-.02.19-.18.25-.5.27-.74,0-.11,0-.23-.01-.33Z"/><path class="cls-6" d="m127.66,133.98c-.06-.32-.4-.58-.71-.39-.05.03-.09.07-.13.12-.43.25-.6,1.09-.16,1.37.28.18.68.05.86-.21.16-.24.19-.6.14-.89Z"/><path class="cls-17" d="m125.66,47.33s3.19-7.07,2.97-10.66-1.93-6.09-1.93-6.09c0,0-2.8,4.49-3.46,3.14-.66-1.34,2.7-4.2,2.7-4.2,0,0-.85-2.69-2.76-4.61-1.91-1.92-2.53-2.45-2.53-2.45,0,0-2.94,4.92-3.85,4.29-.91-.63,2.04-5.54,2.04-5.54,0,0-.71-1.68-2.95-3.08-2.24-1.4-3.49-1.98-3.49-1.98,0,0-1.71,6.46-2.32,5.45s.98-5.74.98-5.74c0,0-1.67-1.68-6.41-1.85-4.74-.17-7.18-.51-9.24-1.05-2.06-.54-2.68-1.07-2.68-1.07,0,0,.47.96.36,5.56-.12,4.6,1.54,8.19,2.3,9.25.76,1.06,1.52,1.63,1.52,1.63,0,0,3.74-2.09,3.88-1.08.14,1.01-3.51,2.33-3.51,2.33,0,0,.85,2.69,2.23,4.75,1.38,2.07,2.91,2.74,2.91,2.74,0,0,3.18-4.2,4.13-3.24.95.96-3.18,4.2-3.18,4.2,0,0,.71,1.68,2.67,3.46,1.95,1.78,2.86,2.41,2.86,2.41,0,0,1.74-4.21,2.5-3.15.76,1.06-1.07,4.11-1.07,4.11,0,0,1.47,2.26,5.78,3.71,4.3,1.46,9.53-1.25,9.53-1.25Z"/><path class="cls-18" d="m95.36,14.54s24.55,22.38,29.54,30.3c4.99,7.92,6.08,10.37,6.08,10.37l-1.29.81s-3.09-7.43-14.37-20.36c-11.29-12.93-19.96-21.11-19.96-21.11Z"/><path class="cls-3" d="m37.87,153.61s-7.16.47-14.91-18.52c-7.75-18.99-11.59-35.1-13.16-38.53-1.57-3.44-2.79-3.6-2.79-3.6,0,0,3.93-2.53,12.18,7.1,8.25,9.62,14,26.73,16.8,36.04s1.89,17.52,1.89,17.52Z"/><path class="cls-12" d="m35.63,150.46c-.64-2.08-1.24-4.17-1.94-6.23-.68-1.99-1.38-3.98-2.08-5.96-1.44-4.05-2.95-8.08-4.53-12.08-3.16-7.97-6.55-15.84-10.26-23.57-.83-1.73-1.63-3.52-2.77-5.08-.97-1.33-2.25-2.57-3.92-2.93-.05,0-.06.06-.02.08,3.18,1.27,4.62,4.42,5.98,7.34,1.8,3.87,3.54,7.77,5.24,11.69,3.34,7.67,6.45,15.45,9.33,23.31.84,2.27,1.65,4.56,2.44,6.85.77,2.22,1.6,4.42,2.37,6.65.04.11.2.04.16-.07Z"/><path class="cls-1" d="m26.07,39.46s-3.03-1.23-6.49-5.18c-3.26-3.72-4.9-6.11-2.62-8.87,2.76-3.33,7.97,4.56,7.97,4.56,0,0-3.8-11.01,0-11.77,3.8-.76,5.69,4.56,4.94,7.21s-1.52,7.59-1.52,7.59c0,0,1.9-1.14,4.56-5.69s6.83-4.94,6.83-.76-3.8,6.07-7.59,8.35c-3.8,2.28-6.07,4.56-6.07,4.56Z"/></g></svg>