<svg xmlns="http://www.w3.org/2000/svg" width="500px" height="500px" viewBox="0 0 500 500" fill="none">
 <style>svg * { fill: rgb(2, 97, 214); }
</style> 

<path d="M20 500C8.9543 500 0 491.046 0 480L0 20C0 8.95432 8.9543 0 20 0H250L250 500H20Z" style="fill: rgb(254, 203, 0);"/>
<path d="M250 500L250 0H480C491.046 0 500 8.9543 500 20V480C500 491.046 491.046 500 480 500H250Z" style="fill: rgb(2, 97, 214);"/>
<path d="M85.7788 402.202V465.426H71.4545L48.6098 432.209H48.2394V465.426H31.075V402.202H45.6462L68.1205 435.296H68.6144V402.202H85.7788ZM110.321 465.426H91.7987L112.668 402.202H136.13L156.999 465.426H138.476L124.646 419.613H124.152L110.321 465.426ZM106.864 440.482H141.687V453.325H106.864V440.482ZM217.792 402.202V465.426H203.468L180.623 432.209H180.252V465.426H163.088V402.202H177.659L200.133 435.296H200.627V402.202H217.792Z" style="fill: rgb(2, 97, 214);"/>
<path d="M307.075 402.202H328.438L343.133 438.013H343.873L358.568 402.202H379.931V465.426H363.137V428.875H362.643L348.566 464.932H338.44L324.363 428.628H323.869V465.426H307.075V402.202ZM425.482 402.202H442.646V442.705C442.646 447.521 441.493 451.689 439.188 455.208C436.904 458.707 433.714 461.413 429.618 463.327C425.523 465.22 420.769 466.167 415.356 466.167C409.902 466.167 405.127 465.22 401.032 463.327C396.936 461.413 393.746 458.707 391.461 455.208C389.198 451.689 388.066 447.521 388.066 442.705V402.202H405.23V441.223C405.23 443.178 405.662 444.928 406.527 446.471C407.391 447.994 408.585 449.188 410.108 450.052C411.651 450.917 413.401 451.349 415.356 451.349C417.332 451.349 419.081 450.917 420.604 450.052C422.127 449.188 423.321 447.994 424.185 446.471C425.049 444.928 425.482 443.178 425.482 441.223V402.202Z" style="fill: rgb(254, 203, 0);"/>
<path fill-rule="evenodd" clip-rule="evenodd" d="M250 125.957V70.0668C258.865 68.7679 267.802 67.5105 276.697 66.2589C344.521 56.7161 409.91 47.5159 422.263 22.9084C422.263 22.9084 383.484 241.78 250 300.735V140.722C273.798 127.308 302.035 116.386 335.947 108.88C335.947 108.88 296.949 108.88 250 125.957Z" style="fill: rgb(254, 203, 0);"/>
<path fill-rule="evenodd" clip-rule="evenodd" d="M250 70.0669C231.997 72.7046 214.293 75.5132 197.842 78.7902C111.526 95.9846 77 169.061 77 203.449C77 237.838 107.211 267.928 107.211 267.928C136.649 184.475 198.17 144.81 250 125.958V70.0669ZM250 140.722V300.735C229.224 309.911 206.154 315.213 180.579 315.213C174.364 315.213 165.733 312.978 157.446 310.055L141.046 349.602L108.419 338.253C109.941 334.484 111.464 330.684 112.997 326.86C139.724 260.178 169.392 186.157 250 140.722Z" style="fill: rgb(2, 97, 214);"/>
</svg>